<svg id="Layer_1" data-name="Layer 1" xmlns="http://www.w3.org/2000/svg" viewBox="0 0 4366.48 1024"><defs><linearGradient id="linear-gradient" x1="5230.16" y1="-1547.01" x2="5225.37" y2="-1545.36" gradientTransform="matrix(293 0 0 -293 -1531564.32 -452638.85)" gradientUnits="userSpaceOnUse"><stop offset="0" stop-color="#032f56"/><stop offset="1" stop-color="#010911"/></linearGradient></defs><path d="M1420.46 726.77q-52.17 0-90-22.82T1272 640.26q-20.57-40.87-20.56-94.54 0-54.17 20.56-95t58.43-63.95q37.86-23.06 90-23.06 61.68 0 100.8 30.09t49.68 84.2h-59.18q-7-30.58-30.09-48.65T1420 411.32q-52.67 0-83.25 35.86t-30.59 98.54q0 62.19 30.59 97.8t83.25 35.6q38.61 0 61.68-17t30.09-46.64h59.18q-10.53 52.17-49.65 81.75t-100.84 29.54zm205.12-6.02L1755 369.69h58.18l128.38 351.06h-56.16L1855.27 635h-143.44l-30.09 85.76zm101.3-127.89h113.34l-56.67-160zm288.87 127.89V369.69h120.86q41.63 0 68.46 14.05t39.87 37.86q13 23.82 13 52.91a106.11 106.11 0 01-17.3 59.18q-17.3 26.58-53.91 38.11l74.73 149h-61.66l-68.21-141.43h-62.68v141.38zm53.16-181.55h64.69q36.11 0 52.91-17.55t16.8-45.64q0-28.08-16.55-44.88t-53.66-16.8h-64.19zm276.82 181.55V369.69h132.4q54.66 0 82.75 25.58t28.12 64.19q0 33.62-18.05 53.41a90.12 90.12 0 01-43.63 26.83 86.41 86.41 0 0135.85 16 85.34 85.34 0 0124.83 30.14 86.25 86.25 0 019 39.12q0 27.07-13.29 48.9t-38.87 34.35q-25.57 12.54-62.69 12.54zm53.16-200.6h72.72q30.58 0 46.64-14.3t16.05-39.37q0-24.56-15.8-39.11t-47.89-14.55h-71.72zm0 157h76.23q32.09 0 49.9-15t17.8-42.13q0-27.08-18.55-42.87t-50.15-15.8h-75.23zm443.32 49.62q-52.15 0-91.27-23.07t-61.18-64q-22.08-40.86-22.07-94.53t22.07-94.53q22.06-40.87 61.18-63.95t91.27-23.06q52.15 0 91.28 23.06t60.93 63.95q21.82 40.88 21.82 94.53t-21.82 94.53q-21.81 40.89-60.93 64t-91.28 23.07zm0-47.65q36.12 0 62.94-16t41.85-46.18q15-30.09 15-71.72t-15-71.71q-15-30.11-41.88-46.14t-62.94-16.05q-36.11 0-63.18 16.05t-41.88 46.14q-14.8 30.09-14.79 71.71t14.79 71.72q14.82 30.06 41.88 46.13t63.21 16.05zm258.28 41.63V369.69h53.16l176 264.3v-264.3h53.15v351.06h-53.15l-176-264.3v264.3zm356.06 0l129.39-351.06h58.17l128.39 351.06h-56.17L3686.24 635h-143.43l-30.09 85.76zm101.3-127.89h113.34l-56.67-160zm333.01 127.89V412.82h-103.81v-43.13h260.28v43.13H3944v307.93zm231.19 0V369.69h223.17v43.13h-170v109.33h155v42.13h-155v113.34h170v43.13z" fill="#032f57"/><g id="Carbonate_Logo" data-name="Carbonate Logo"><g id="Group_2876" data-name="Group 2876"><circle id="Ellipse_287" data-name="Ellipse 287" cx="511.19" cy="510.03" r="494.48" fill="url(#linear-gradient)"/><path d="M521.61 886.11a377.13 377.13 0 01-377.83-376.22 374.79 374.79 0 0192.67-246.54 379.12 379.12 0 01566.15-5.05 57.21 57.21 0 01-4.16 81.08 57.9 57.9 0 01-81.44-4.14 263.49 263.49 0 00-393.4 3.42 260.34 260.34 0 0026 368.58 263.48 263.48 0 00370.34-25.84 57.9 57.9 0 0181.4-5.68 57.21 57.21 0 015.71 81 378.76 378.76 0 01-285.44 129.39z" fill="#7beffe"/></g></g></svg>